<?xml version="1.0" encoding="iso-8859-1"?>
<!-- Generator: Adobe Illustrator 18.0.0, SVG Export Plug-In . SVG Version: 6.00 Build 0)  -->
<!DOCTYPE svg PUBLIC "-//W3C//DTD SVG 1.1//EN" "http://www.w3.org/Graphics/SVG/1.1/DTD/svg11.dtd">
<svg version="1.1" id="Capa_1" xmlns="http://www.w3.org/2000/svg" xmlns:xlink="http://www.w3.org/1999/xlink" x="0px" y="0px"
	 viewBox="0 0 451.868 451.868" style="enable-background:new 0 0 451.868 451.868;" xml:space="preserve">
<path style="stroke:#000000;stroke-width:0;stroke-linecap:round;stroke-linejoin:round;" d="M445.252,193.269
	c8.82-12.61,8.821-22.042,0-34.653c-19.716-5.24-50.076,5.327-57.732,10.997c-2.136,1.581-3.765,3.141-4.814,4.84
	c-8.895-22.003-19.853-46.411-30.311-62.458c-1.597-2.451-4.003-4.265-6.8-5.125c-1.617-0.498-40.534-12.189-120.704-12.189
	c-80.168,0-119.083,11.692-120.701,12.189c-2.796,0.86-5.202,2.674-6.8,5.125c-10.176,15.615-20.824,39.144-29.586,60.67
	c-0.933-1.037-2.089-2.04-3.456-3.053c-7.656-5.67-38.017-16.237-57.732-10.997c-8.821,12.611-8.82,22.043,0,34.653
	c15.039,3.998,29.258,4.935,43.907,2.834c-11.75,9.474-19.286,23.974-19.286,40.207c0,0.665,0.045,1.329,0.134,1.989l8.338,61.301
	c0.45,3.308,1.981,6.228,4.199,8.442v33.855c0,8.445,6.846,15.291,15.291,15.291h40.573c8.445,0,15.292-6.846,15.292-15.291v-29.531
	h219.658v29.531c0,8.445,6.846,15.291,15.292,15.291h40.574c8.445,0,15.291-6.846,15.291-15.291v-30.93
	c4.413-2.069,7.671-6.262,8.365-11.367l8.338-61.301c0.09-0.659,0.135-1.324,0.135-1.989c0-16.046-7.358-30.405-18.875-39.884
	C417.614,198.081,431.069,197.039,445.252,193.269z M115.846,129.651c11.694-2.82,47.392-9.957,109.045-9.957
	c61.277,0,97.297,7.165,109.058,9.974c8.833,14.678,18.141,35.746,25.888,55.001h-54.695l-29.73-15.261
	c-1.308-0.672-2.757-1.022-4.228-1.022H178.6c-1.471,0-2.92,0.35-4.228,1.022l-29.73,15.261H89.945
	C97.693,165.411,107.005,144.338,115.846,129.651z M330.005,233.679v18.194c-18.426,1.443-38.261,2.998-38.261,2.998l6.254-18.686
	L330.005,233.679z M158.04,254.871c0,0-19.835-1.555-38.263-2.998v-18.194l32.009,2.507L158.04,254.871z M70.994,229.857
	l40.444,3.167v18.196c-9.971-0.781-18.421-1.443-21.407-1.678C80.996,248.835,70.994,229.857,70.994,229.857z M349.543,287.428
	l-124.652,8.338l-124.65-8.338l-8.338-19.218l132.988,8.338l132.99-8.338L349.543,287.428z M359.752,249.542
	c-2.988,0.235-11.437,0.897-21.409,1.678v-18.196l40.446-3.167C378.789,229.857,368.787,248.835,359.752,249.542z"/>
<g>
</g>
<g>
</g>
<g>
</g>
<g>
</g>
<g>
</g>
<g>
</g>
<g>
</g>
<g>
</g>
<g>
</g>
<g>
</g>
<g>
</g>
<g>
</g>
<g>
</g>
<g>
</g>
<g>
</g>
</svg>
